<svg id="visual" viewBox="0 0 960 540" width="960" height="540" xmlns="http://www.w3.org/2000/svg" xmlns:xlink="http://www.w3.org/1999/xlink" version="1.1"><rect x="0" y="0" width="960" height="540" fill="#001220"></rect><defs><linearGradient id="grad1_0" x1="43.8%" y1="0%" x2="100%" y2="100%"><stop offset="14.444444444444446%" stop-color="#001220" stop-opacity="1"></stop><stop offset="85.55555555555554%" stop-color="#001220" stop-opacity="1"></stop></linearGradient></defs><defs><linearGradient id="grad2_0" x1="0%" y1="0%" x2="56.3%" y2="100%"><stop offset="14.444444444444446%" stop-color="#001220" stop-opacity="1"></stop><stop offset="85.55555555555554%" stop-color="#001220" stop-opacity="1"></stop></linearGradient></defs><g transform="translate(960, 0)"><path d="M0 351C-31.1 345.8 -62.3 340.6 -87.7 327.4C-113.2 314.3 -133 293.1 -163 282.3C-193 271.5 -233.3 271 -248.2 248.2C-263.1 225.4 -252.7 180.3 -260.7 150.5C-268.6 120.7 -294.9 106.4 -313 83.9C-331.1 61.3 -341 30.7 -351 0L0 0Z" fill="#b45609"></path></g><g transform="translate(0, 540)"><path d="M0 -351C23.6 -321.8 47.1 -292.6 77.4 -288.8C107.6 -285 144.5 -306.6 175.5 -304C206.5 -301.3 231.4 -274.5 244 -244C256.5 -213.4 256.5 -179.3 263.3 -152C270.1 -124.7 283.7 -104.4 299.4 -80.2C315.2 -56.1 333.1 -28 351 0L0 0Z" fill="#b45609"></path></g></svg>