<svg id="visual" viewBox="0 0 900 600" width="900" height="600" xmlns="http://www.w3.org/2000/svg" xmlns:xlink="http://www.w3.org/1999/xlink" version="1.1"><rect x="0" y="0" width="900" height="600" fill="#001220"></rect><path d="M0 414L21.5 410.8C43 407.7 86 401.3 128.8 393C171.7 384.7 214.3 374.3 257.2 377.5C300 380.7 343 397.3 385.8 402.2C428.7 407 471.3 400 514.2 400.3C557 400.7 600 408.3 642.8 411.5C685.7 414.7 728.3 413.3 771.2 415.7C814 418 857 424 878.5 427L900 430L900 601L878.5 601C857 601 814 601 771.2 601C728.3 601 685.7 601 642.8 601C600 601 557 601 514.2 601C471.3 601 428.7 601 385.8 601C343 601 300 601 257.2 601C214.3 601 171.7 601 128.8 601C86 601 43 601 21.5 601L0 601Z" fill="#f7770f"></path><path d="M0 477L21.5 464.3C43 451.7 86 426.3 128.8 421.7C171.7 417 214.3 433 257.2 439.8C300 446.7 343 444.3 385.8 448.2C428.7 452 471.3 462 514.2 466.2C557 470.3 600 468.7 642.8 457.8C685.7 447 728.3 427 771.2 415.8C814 404.7 857 402.3 878.5 401.2L900 400L900 601L878.5 601C857 601 814 601 771.2 601C728.3 601 685.7 601 642.8 601C600 601 557 601 514.2 601C471.3 601 428.7 601 385.8 601C343 601 300 601 257.2 601C214.3 601 171.7 601 128.8 601C86 601 43 601 21.5 601L0 601Z" fill="#f98619"></path><path d="M0 483L21.5 481.7C43 480.3 86 477.7 128.8 480.7C171.7 483.7 214.3 492.3 257.2 492C300 491.7 343 482.3 385.8 473.2C428.7 464 471.3 455 514.2 460.7C557 466.3 600 486.7 642.8 493.3C685.7 500 728.3 493 771.2 485.8C814 478.7 857 471.3 878.5 467.7L900 464L900 601L878.5 601C857 601 814 601 771.2 601C728.3 601 685.7 601 642.8 601C600 601 557 601 514.2 601C471.3 601 428.7 601 385.8 601C343 601 300 601 257.2 601C214.3 601 171.7 601 128.8 601C86 601 43 601 21.5 601L0 601Z" fill="#fa9424"></path><path d="M0 531L21.5 530.7C43 530.3 86 529.7 128.8 521.5C171.7 513.3 214.3 497.7 257.2 490C300 482.3 343 482.7 385.8 491.2C428.7 499.7 471.3 516.3 514.2 524.3C557 532.3 600 531.7 642.8 528C685.7 524.3 728.3 517.7 771.2 517.8C814 518 857 525 878.5 528.5L900 532L900 601L878.5 601C857 601 814 601 771.2 601C728.3 601 685.7 601 642.8 601C600 601 557 601 514.2 601C471.3 601 428.7 601 385.8 601C343 601 300 601 257.2 601C214.3 601 171.7 601 128.8 601C86 601 43 601 21.5 601L0 601Z" fill="#fba230"></path><path d="M0 545L21.5 545C43 545 86 545 128.8 545C171.7 545 214.3 545 257.2 548.7C300 552.3 343 559.7 385.8 561.2C428.7 562.7 471.3 558.3 514.2 552.7C557 547 600 540 642.8 536.5C685.7 533 728.3 533 771.2 532.8C814 532.7 857 532.3 878.5 532.2L900 532L900 601L878.5 601C857 601 814 601 771.2 601C728.3 601 685.7 601 642.8 601C600 601 557 601 514.2 601C471.3 601 428.7 601 385.8 601C343 601 300 601 257.2 601C214.3 601 171.7 601 128.8 601C86 601 43 601 21.5 601L0 601Z" fill="#fcaf3c"></path></svg>